<?xml version="1.0" standalone="no"?>
<!DOCTYPE svg PUBLIC "-//W3C//DTD SVG 20010904//EN"
 "http://www.w3.org/TR/2001/REC-SVG-20010904/DTD/svg10.dtd">
<svg version="1.0" xmlns="http://www.w3.org/2000/svg"
 width="489.000000pt" height="489.000000pt" viewBox="0 0 489.000000 489.000000"
 preserveAspectRatio="xMidYMid meet">
<metadata>
Created by potrace 1.14, written by Peter Selinger 2001-2017
</metadata>
<g transform="translate(0.000000,489.000000) scale(0.100000,-0.100000)"
fill="#000000" stroke="none">
<path d="M0 2445 l0 -2445 2445 0 2445 0 0 2445 0 2445 -2445 0 -2445 0 0
-2445z m2865 2336 c240 -48 489 -137 693 -248 98 -53 298 -192 397 -277 361
-308 628 -731 743 -1176 70 -268 86 -409 79 -678 -5 -231 -29 -383 -92 -600
-142 -488 -443 -921 -855 -1228 -138 -102 -316 -209 -407 -244 -26 -10 -77
-32 -113 -48 -150 -67 -429 -139 -634 -163 -62 -7 -182 -9 -325 -6 -199 5
-243 9 -371 35 -134 28 -317 79 -365 102 -11 5 -60 25 -110 45 -374 151 -759
458 -1001 800 -234 330 -384 727 -425 1124 -14 141 -6 513 15 626 72 400 246
795 473 1076 367 454 859 752 1413 858 206 40 199 39 480 36 230 -2 255 -4
405 -34z"/>
<path d="M2250 4754 c-231 -22 -369 -50 -565 -115 -113 -38 -312 -130 -435
-201 -185 -106 -413 -299 -582 -493 -46 -52 -171 -222 -189 -257 -8 -15 -35
-65 -62 -112 -259 -462 -347 -999 -251 -1536 16 -90 61 -263 74 -289 5 -9 16
-41 25 -71 23 -76 141 -318 204 -420 94 -151 261 -360 355 -443 12 -10 44 -40
71 -65 28 -26 77 -67 110 -91 33 -25 62 -47 65 -50 29 -34 217 -146 350 -209
231 -111 424 -170 670 -208 155 -24 510 -24 660 -1 269 43 454 101 700 221
124 60 244 129 288 166 9 8 53 42 97 74 177 132 431 419 553 626 91 155 182
356 226 495 74 239 99 412 99 685 0 270 -14 384 -80 630 -42 160 -167 440
-259 583 -24 37 -44 70 -44 72 0 8 -135 181 -180 231 -94 103 -239 239 -332
310 -99 75 -306 206 -356 225 -15 6 -56 25 -92 43 -36 18 -99 45 -140 61 -41
15 -84 31 -95 36 -52 21 -302 78 -391 89 -90 11 -426 20 -494 14z m53 -243 c8
-31 -5 -39 -90 -51 -85 -13 -121 -34 -110 -64 5 -13 16 -14 54 -9 26 4 66 8
88 8 36 0 40 -2 40 -25 0 -27 -12 -31 -126 -45 -40 -5 -46 -9 -42 -25 10 -37
27 -42 116 -33 100 10 107 9 107 -22 0 -28 -14 -32 -135 -40 -87 -6 -91 -5
-120 21 -25 23 -31 38 -40 109 -12 90 -11 98 23 140 19 24 36 32 90 41 104 19
139 17 145 -5z m381 -22 c45 -49 47 -92 5 -97 -22 -3 -27 2 -32 26 -7 32 -41
52 -91 52 -53 0 -65 -16 -72 -100 -8 -88 -3 -95 70 -103 39 -4 52 -1 67 14 10
10 19 24 19 29 0 6 14 10 30 10 44 0 41 -37 -7 -85 l-38 -37 -74 7 c-70 6 -77
9 -108 43 -31 34 -33 41 -28 87 2 28 5 67 5 88 0 31 7 44 38 72 35 33 41 35
108 35 71 0 72 0 108 -41z m239 -21 c2 -7 -2 -30 -9 -52 -8 -21 -14 -44 -14
-52 0 -13 127 -57 141 -49 4 3 12 27 19 55 10 42 16 50 35 50 43 0 46 -19 18
-110 -59 -193 -59 -195 -79 -198 -41 -5 -47 11 -30 72 9 31 15 60 12 65 -5 7
-106 35 -131 36 -5 0 -17 -25 -26 -55 -15 -50 -19 -55 -44 -53 -15 1 -30 5
-33 7 -3 3 7 45 21 93 14 49 33 114 42 146 15 52 19 57 45 57 16 0 30 -6 33
-12z m-1016 -52 c-2 -6 -29 -20 -60 -31 -31 -11 -57 -24 -57 -30 0 -5 16 -59
37 -118 31 -91 34 -110 22 -118 -30 -19 -47 -9 -63 34 -9 23 -26 71 -39 107
-27 72 -31 74 -115 50 -48 -14 -50 -13 -54 20 -3 21 6 27 87 58 50 18 117 44
150 57 l60 24 18 -21 c10 -12 16 -26 14 -32z m1464 -118 c72 -39 80 -47 94
-87 8 -25 15 -51 15 -59 0 -27 -104 -202 -120 -202 -41 1 -42 16 -6 86 19 38
43 81 53 97 16 25 17 30 3 55 -16 27 -82 70 -110 71 -9 0 -36 -40 -70 -104
-29 -58 -57 -105 -61 -105 -34 0 -53 41 -30 66 7 7 54 94 110 202 16 31 32 28
122 -20z m-2054 -264 c49 -59 89 -114 91 -123 1 -9 -7 -22 -20 -30 -20 -13
-24 -11 -55 25 -18 22 -33 42 -33 47 0 4 -6 7 -14 7 -8 0 -16 -3 -18 -7 -1 -5
-20 -21 -41 -37 -21 -15 -41 -35 -44 -43 -3 -8 9 -32 26 -53 17 -21 31 -44 31
-50 0 -18 -27 -40 -42 -34 -23 9 -183 210 -183 229 0 10 8 23 18 29 16 9 24 4
57 -33 l38 -44 44 34 c81 63 79 60 38 109 -17 19 -30 39 -30 45 0 15 21 35 37
35 7 0 52 -48 100 -106z m2431 9 c45 -42 53 -54 59 -95 5 -46 4 -49 -48 -110
-29 -35 -54 -64 -55 -66 -1 -1 -24 -5 -52 -9 -45 -5 -56 -2 -84 19 -78 60 -88
74 -88 124 0 42 6 53 53 110 56 68 62 71 123 73 35 1 47 -5 92 -46z m-1003
-111 c183 -47 341 -111 459 -187 31 -20 68 -35 85 -35 39 0 61 -24 61 -65 0
-26 -6 -39 -25 -51 -37 -24 -70 -11 -91 36 -10 22 -22 40 -27 40 -5 0 -21 8
-35 19 -102 72 -333 161 -487 188 -143 25 -413 22 -545 -6 -88 -18 -110 -27
-133 -51 -46 -49 -117 -31 -117 30 0 49 22 65 86 63 31 -2 83 4 116 13 109 28
172 33 373 29 160 -2 216 -7 280 -23z m1228 -106 c18 -27 20 -25 -88 -111 -82
-66 -85 -80 -24 -156 50 -63 52 -71 19 -89 -16 -9 -27 0 -76 60 -55 68 -56 72
-50 116 3 25 8 50 11 55 8 12 178 149 186 149 4 0 14 -11 22 -24z m-2920 -77
c48 -39 87 -77 87 -84 0 -7 -6 -18 -14 -24 -16 -14 -43 -4 -66 23 -21 26 -35
19 -84 -43 -50 -64 -50 -66 6 -105 22 -16 19 -42 -7 -52 -14 -6 -47 17 -181
122 -8 7 -17 35 -21 63 -5 48 -4 53 36 105 49 63 51 64 111 65 41 1 52 -5 133
-70z m1650 -152 c13 -12 42 -72 65 -132 24 -61 68 -175 99 -255 30 -80 73
-189 94 -244 22 -54 39 -104 39 -112 0 -7 15 -29 34 -47 44 -44 52 -71 32
-102 -21 -32 -75 -34 -101 -5 -14 15 -16 29 -11 61 5 34 0 58 -28 128 -19 47
-56 142 -82 211 -26 69 -55 145 -64 170 -10 25 -31 81 -48 126 -17 44 -39 98
-49 120 l-18 39 -180 0 -180 0 1 -30 c1 -16 68 -214 149 -440 81 -225 158
-439 171 -475 31 -86 30 -124 -1 -155 -24 -24 -28 -25 -184 -25 -200 0 -193
-4 -249 165 -106 322 -124 366 -145 363 -12 -2 -25 -17 -33 -38 -7 -19 -52
-134 -101 -255 -72 -183 -87 -230 -88 -277 -1 -68 -20 -98 -64 -98 -39 0 -61
24 -61 65 0 28 6 37 29 49 23 12 35 32 56 93 16 43 37 98 47 122 11 24 40 98
65 165 70 186 89 223 124 235 34 12 66 3 90 -25 9 -11 40 -89 69 -174 28 -85
66 -194 82 -242 l31 -88 144 0 c122 0 145 2 150 16 3 9 -9 57 -27 107 -18 51
-55 155 -82 232 -26 77 -54 156 -62 175 -8 19 -26 67 -40 105 -13 39 -50 139
-80 224 -57 157 -66 205 -43 233 26 33 52 37 240 38 182 0 189 -1 210 -23z
m-1277 -45 c48 -31 30 -106 -29 -118 -34 -7 -73 -50 -155 -174 -53 -80 -134
-244 -161 -326 -56 -169 -65 -237 -65 -464 0 -200 2 -222 27 -324 47 -189 133
-374 241 -521 74 -102 87 -115 111 -115 12 0 32 -11 44 -24 29 -31 25 -73 -10
-99 -23 -16 -30 -17 -50 -6 -32 16 -48 39 -49 66 0 12 -6 28 -13 35 -94 98
-215 294 -276 450 -131 331 -132 745 -3 1068 46 116 80 187 119 248 42 67 139
199 152 207 5 3 13 20 16 38 4 17 14 40 23 50 15 17 58 23 78 9z m2756 -71
c35 -15 48 -29 72 -75 29 -57 30 -78 7 -138 -8 -20 -30 -36 -87 -63 -74 -35
-77 -35 -122 -22 -44 12 -49 17 -80 80 -31 63 -32 71 -21 105 6 20 16 43 22
50 12 15 136 81 154 82 6 0 31 -9 55 -19z m-3443 -5 c20 -24 -4 -58 -34 -50
-43 11 -97 -72 -81 -124 6 -19 108 -72 138 -72 22 0 68 71 68 104 0 13 -7 29
-15 36 -21 17 -15 54 8 58 27 5 53 -23 67 -72 11 -40 10 -47 -18 -103 -27 -52
-36 -62 -77 -77 -45 -18 -47 -18 -98 4 -95 41 -123 64 -137 113 -12 43 -11 48
21 108 27 50 41 65 69 75 48 17 75 17 89 0z m-223 -361 c4 -8 -3 -49 -14 -91
-22 -80 -21 -99 9 -115 22 -11 20 -15 47 86 19 71 38 89 66 65 12 -9 11 -23
-5 -83 -24 -93 -24 -97 6 -97 31 0 49 28 65 100 20 89 30 101 64 77 16 -12 15
-18 -8 -106 -14 -51 -27 -94 -28 -96 -2 -1 -17 -11 -35 -23 -39 -27 -56 -27
-149 0 -63 18 -77 26 -94 55 -25 43 -25 50 2 156 20 78 25 87 46 87 12 0 25
-7 28 -15z m3833 -17 c20 -12 37 -22 39 -23 1 -1 12 -35 23 -75 19 -70 19 -73
1 -104 -20 -34 -65 -61 -88 -52 -18 7 -19 56 0 56 30 0 39 27 26 79 -17 71
-27 77 -109 62 -89 -16 -100 -33 -76 -114 9 -33 22 -57 30 -57 11 0 11 9 -1
52 -7 29 -12 54 -10 55 2 2 16 5 31 6 25 2 29 -3 41 -48 32 -115 34 -108 -42
-128 -37 -9 -71 -14 -74 -10 -9 10 -50 173 -50 195 0 9 9 33 21 52 16 28 32
38 82 54 82 26 113 26 156 0z m-3756 -417 c34 -38 34 -39 29 -114 l-5 -77 27
0 c22 0 26 -4 26 -31 l0 -30 -142 6 c-79 4 -149 9 -157 11 -11 4 -13 24 -7
111 6 99 9 108 34 130 37 34 53 39 111 35 43 -3 55 -9 84 -41z m3872 29 c10
-30 0 -37 -62 -45 -73 -9 -103 -34 -103 -86 0 -56 34 -79 117 -79 64 0 64 0
61 -27 -3 -27 -6 -28 -63 -31 -81 -4 -93 0 -148 53 -35 33 -55 45 -77 45 -27
0 -30 3 -30 30 0 25 4 30 25 30 13 0 29 6 34 13 69 84 95 106 130 110 92 10
109 8 116 -13z m-551 -311 c31 -24 33 -57 7 -90 -10 -13 -22 -44 -25 -69 -29
-189 -98 -375 -204 -550 -215 -354 -594 -613 -1002 -686 -59 -10 -103 -24
-116 -35 -26 -24 -45 -24 -78 2 -51 40 -17 118 47 105 18 -4 46 -9 63 -12 30
-6 200 30 294 62 95 32 257 117 349 183 184 133 338 311 439 508 61 118 83
177 115 303 34 132 38 163 21 195 -17 33 -9 70 19 90 28 20 39 19 71 -6z
m-1134 -322 c30 -15 44 -44 102 -197 l44 -115 127 -3 c116 -2 131 -1 154 18
32 25 44 25 77 -1 49 -39 24 -109 -39 -109 -18 0 -38 6 -44 14 -9 11 -46 15
-151 18 -167 4 -168 4 -216 135 -18 48 -41 111 -51 138 l-19 50 -304 0 -305 0
-55 -142 c-30 -79 -63 -151 -73 -160 -15 -16 -41 -18 -192 -21 -136 -3 -176
-6 -186 -18 -16 -19 -68 -18 -91 3 -27 24 -23 68 8 92 33 26 45 26 77 1 23
-18 40 -20 180 -20 170 0 178 3 193 65 3 17 17 55 29 85 12 30 30 76 39 103
28 76 27 76 371 76 222 1 307 -3 325 -12z m-1956 -512 c25 -20 46 -43 46 -51
0 -9 -7 -40 -16 -70 l-15 -54 -75 0 c-72 0 -74 1 -80 28 -3 15 -10 40 -15 56
-5 16 -9 34 -9 41 0 14 88 85 105 85 7 0 33 -16 59 -35z m3317 -2 c27 -20 49
-44 48 -53 0 -8 -8 -37 -18 -65 l-18 -50 -70 -3 -71 -3 -23 68 -22 67 21 14
c11 7 33 25 49 38 37 32 47 31 104 -13z m-2092 -792 c12 -8 12 -25 -3 -116
-21 -126 -16 -139 62 -149 88 -12 102 -17 102 -34 -1 -40 -12 -43 -104 -29
-47 8 -88 16 -90 18 -1 2 -14 20 -29 39 l-26 36 14 99 c8 55 17 110 20 123 6
23 29 29 54 13z m772 -28 c44 -32 54 -77 19 -88 -24 -7 -40 1 -40 20 0 23 -36
36 -79 29 -69 -11 -74 -20 -66 -103 8 -83 21 -101 73 -101 50 0 86 20 91 50 6
43 46 55 60 18 6 -17 3 -33 -12 -61 -29 -52 -33 -54 -111 -67 -66 -10 -70 -10
-107 15 -44 31 -43 29 -59 121 -14 81 -10 107 23 148 41 50 149 60 208 19z
m-487 -9 c13 -5 16 -25 16 -113 0 -58 5 -113 10 -121 6 -11 33 -16 92 -20 81
-5 83 -6 83 -30 0 -25 -1 -25 -89 -28 l-89 -3 -39 38 -38 37 0 116 c0 64 3
120 7 123 8 9 27 9 47 1z"/>
<path d="M3618 4016 c-54 -56 -78 -89 -77 -108 0 -26 70 -88 98 -88 24 0 111
94 111 118 0 24 -75 92 -101 92 -10 0 -24 -6 -31 -14z"/>
<path d="M862 3718 c-18 -23 -32 -49 -32 -58 0 -20 45 -64 58 -56 5 3 28 30
52 61 41 54 42 56 25 75 -30 33 -66 26 -103 -22z"/>
<path d="M4074 3406 c-69 -37 -77 -57 -43 -122 22 -44 28 -48 64 -44 31 3 115
53 121 72 7 23 -41 114 -64 120 -11 3 -45 -8 -78 -26z"/>
<path d="M448 2648 c-12 -9 -18 -33 -20 -78 l-3 -65 65 0 65 0 3 61 c2 46 -1
66 -13 78 -19 19 -75 21 -97 4z"/>
</g>
</svg>
